<?xml version="1.0" encoding="UTF-8"?>
<!-- Created with Inkscape (http://www.inkscape.org/) -->
<svg width="214" height="214" version="1.1" viewBox="0 0 214 214" xmlns="http://www.w3.org/2000/svg" xmlns:cc="http://creativecommons.org/ns#" xmlns:dc="http://purl.org/dc/elements/1.1/" xmlns:rdf="http://www.w3.org/1999/02/22-rdf-syntax-ns#">
 <metadata>
  <rdf:RDF>
   <cc:Work rdf:about="">
    <dc:format>image/svg+xml</dc:format>
    <dc:type rdf:resource="http://purl.org/dc/dcmitype/StillImage"/>
    <dc:title/>
   </cc:Work>
  </rdf:RDF>
 </metadata>
 <path d="m40.72 154.03v-31.312l31.75-30.091c17.462-16.55 32.036-30.247 32.385-30.438 0.34911-0.19039 15.087 13.351 32.75 30.091l32.115 30.438v62.625h-52v-53h-25v53h-52zm39-8.6875v-13h-26v12.333c0 6.7833 0.3 12.633 0.66667 13 0.36667 0.36667 6.2167 0.66667 13 0.66667h12.333zm77 0v-13h-26v26h26zm-136.29-23.686c-2.5183-2.0976-4.5686-4.0388-4.5563-4.3138 0.02543-0.56717 77.295-74.215 84.73-80.759l4.839-4.2589 33.781 31.955 0.28542-10.009 0.28543-10.009 16.429 0.57974 0.54398 36.205 7.728 7.3478c4.2504 4.0413 12.797 12.282 18.992 18.313l11.264 10.965-3.2641 2.8434c-1.7953 1.5639-3.9718 3.2626-4.8368 3.7749-1.247 0.73855-9.8426-6.9148-41.5-36.95l-39.927-37.882-6.5 6.2702c-5.6825 5.4816-60.322 57.204-70.108 66.363l-3.6075 3.3771z"/>
</svg>
