<?xml version="1.0" encoding="UTF-8"?>
<!-- Created with Inkscape (http://www.inkscape.org/) -->
<svg width="214" height="214" version="1.1" viewBox="0 0 214 214" xmlns="http://www.w3.org/2000/svg" xmlns:cc="http://creativecommons.org/ns#" xmlns:dc="http://purl.org/dc/elements/1.1/" xmlns:rdf="http://www.w3.org/1999/02/22-rdf-syntax-ns#">
 <metadata>
  <rdf:RDF>
   <cc:Work rdf:about="">
    <dc:format>image/svg+xml</dc:format>
    <dc:type rdf:resource="http://purl.org/dc/dcmitype/StillImage"/>
    <dc:title/>
   </cc:Work>
  </rdf:RDF>
 </metadata>
 <g transform="translate(13.073 -4.8165)" stroke-width=".27567">
  <path d="m44.982 173.57c-13.456-13.456-24.465-24.559-24.465-24.672 0-0.11339 6.8118-0.20617 15.137-0.20617h15.137l0.15837-1.0338c0.08711-0.56856 0.355-3.0185 0.59531-5.4444 0.37775-3.8132 1.7629-12.807 2.5687-16.678 1.6284-7.8233 4.7102-18.747 6.8437-24.259 2.1822-5.6374 2.8163-7.1637 4.6722-11.246 9.4767-20.846 23.351-37.877 39.426-48.397 8.7744-5.7421 17.847-9.2978 28.296-11.089 3.931-0.67394 12.793-0.82026 17.28-0.28528 4.328 0.51613 10.529 1.8489 10.678 2.2948 0.0564 0.16915-0.30721 0.39542-0.808 0.50282-0.50078 0.1074-2.2076 0.68619-3.7928 1.2862-18.489 6.9978-34.75 21.79-47.217 42.951-5.7066 9.6862-11.045 22.033-14.242 32.942-0.48885 1.6678-1.1804 4.0247-1.5368 5.2377-0.35637 1.2129-0.79373 2.9496-0.97192 3.8593-0.17819 0.9097-0.61535 2.8945-0.97147 4.4107-1.0396 4.4261-2.3232 12.267-2.904 17.739-0.2961 2.7898-0.61522 5.553-0.70915 6.1404l-0.1708 1.0681h15.335c8.4341 0 15.335 0.0933 15.335 0.20733 0 0.2258-48.844 49.137-49.07 49.137-0.07581 0-11.147-11.01-24.603-24.466z" fill="#b9b9b9"/>
  <path d="m44.983 173.5c-13.456-13.476-24.465-24.57-24.465-24.655 0-0.0845 6.8144-0.15362 15.143-0.15362 14.187 0 15.152-0.0305 15.278-0.48241 0.07401-0.26533 0.21349-1.4748 0.30996-2.6878 1.3003-16.349 5.594-34.19 12.075-50.171 1.9517-4.8129 7.0313-14.986 9.5658-19.159 18.044-29.705 43.237-46.295 70.3-46.295 5.6878 0 11.961 0.80668 17.16 2.2067 1.0186 0.27429 1.4276 0.80844 0.61892 0.80844-0.92298 0-6.8784 2.3824-11.025 4.4105-13.047 6.381-25.326 17.431-35.206 31.683-8.6297 12.449-15.561 27.386-20.212 43.557-0.84756 2.9471-1.781 6.5245-2.0743 7.9498-0.29328 1.4254-0.71339 3.2938-0.9336 4.1522-0.73131 2.8507-2.0839 11.404-2.7753 17.549-0.37524 3.3356-0.68313 6.1577-0.68419 6.2714-0.0011 0.11371 6.8828 0.20675 15.298 0.20675 8.4147 0 15.299 0.0933 15.299 0.20733 0 0.23675-48.859 49.146-49.069 49.12-0.07549-0.01-11.147-11.043-24.603-24.519z" fill="#a3a3a3"/>
  <path d="m44.915 173.32-24.533-24.627h30.654l0.18565-2.5499c1.2415-17.052 6.1239-36.838 13.077-52.997 10.317-23.974 25.621-42.595 43.879-53.385 14.322-8.4643 31.166-11.71 46.174-8.8966 3.7014 0.69376 7.0317 1.5462 6.8963 1.7653-0.0706 0.11418-0.72074 0.36931-1.4448 0.56696-4.7909 1.3077-12.572 5.102-18.408 8.9756-25.431 16.881-44.347 49.787-51.132 88.95-0.7163 4.1341-2.1994 15.619-2.2066 17.088-0.0022 0.45367 0.90902 0.48241 15.297 0.48241 8.4147 0 15.299 0.0933 15.299 0.20733 0 0.25474-48.877 49.155-49.069 49.092-0.07549-0.0247-11.177-11.127-24.67-24.672z" fill="#8c8c8c"/>
  <path d="m45.258 173.57c-13.456-13.456-24.465-24.559-24.465-24.672 0-0.11339 6.8057-0.20617 15.124-0.20617h15.124l0.18587-2.4121c0.6852-8.8918 2.7785-20.965 5.257-30.32 12.033-45.419 40.41-78.016 73.749-84.716 9.3003-1.8691 18.346-1.7655 27.567 0.31575 3.5514 0.80155 4.096 1.1406 2.4121 1.5016-0.49275 0.10564-2.1364 0.66438-3.6526 1.2417-13.845 5.2715-26.984 15.346-37.554 28.796-6.087 7.7452-12.948 19.183-16.701 27.842-6.0745 14.016-9.8816 26.866-12.292 41.488-0.76401 4.6354-1.957 14.183-1.957 15.663v0.60157h15.299c8.4147 0 15.299 0.0933 15.299 0.20733s-11.01 11.216-24.466 24.672l-24.466 24.465z" fill="#767676"/>
  <path d="m45.12 173.43c-13.38-13.38-24.327-24.39-24.327-24.465-1.6e-5 -0.0755 6.7917-0.13726 15.093-0.13726h15.093l0.21136-2.0675c1.9347-18.926 5.02-32.586 10.771-47.69 3.7526-9.8554 9.5744-21.214 14.624-28.531 12.417-17.995 26.659-29.981 43.035-36.217 8.7776-3.3429 18.976-4.8788 27.913-4.2039 5.3974 0.40756 13.574 1.9155 13.574 2.5033 0 0.09617-0.56283 0.32539-1.2507 0.50938-3.1109 0.83204-9.4174 3.5933-13.455 5.8911-17.042 9.6992-31.283 25.778-41.863 47.265-7.4262 15.082-12.395 31.336-15.073 49.309-0.80448 5.3981-1.5219 12.403-1.3233 12.921 0.16157 0.42103 1.4136 0.45244 15.344 0.38491 8.3427-0.0404 15.169-9e-3 15.169 0.0691-1e-4 0.23665-48.75 48.788-48.987 48.788-0.1211 0-11.167-10.948-24.547-24.328z" fill="#606060"/>
  <path d="m45.052 173.36-24.395-24.396h15.076c8.2917 0 15.136-0.0979 15.21-0.2175 0.07393-0.11962 0.27263-1.7633 0.44156-3.6526 0.16893-1.8893 0.68113-6.0156 1.1382-9.1696 3.9552-27.292 13.633-51.718 28.091-70.901 3.113-4.1302 4.7163-5.9721 9.0822-10.434 10.955-11.195 22.148-18.156 35.494-22.073 6.6602-1.9547 15.425-2.8964 22.163-2.381 4.1106 0.31442 10.241 1.3102 12.653 2.0553l1.2405 0.38323-0.77024 0.30264c-0.42363 0.16646-1.1059 0.38347-1.5162 0.48226-1.2547 0.30211-6.5177 2.4985-9.2182 3.8469-8.1496 4.0694-15.2 9.2718-22.547 16.637-9.0645 9.0872-15.841 18.772-22.705 32.449-1.4574 2.9039-2.6497 5.3529-2.6497 5.4422 0 0.08937-0.68114 1.7635-1.5136 3.7203-6.2035 14.581-11.042 35.103-12.323 52.269l-0.08232 1.1027 30.591 0.1426-24.393 24.394c-13.416 13.417-24.455 24.394-24.532 24.394-0.07645 0-11.117-10.978-24.534-24.396z" fill="#494949"/>
  <path d="m45.052 173.36-24.395-24.396h15.23c12 0 15.23-0.0731 15.231-0.34459 0.0039-1.4133 0.7072-7.6321 1.3952-12.336 3.0423-20.801 8.8693-38.855 17.782-55.096 5.9772-10.891 11.334-18.275 18.986-26.167 9.5105-9.8094 19.401-16.519 30.45-20.659 8.7196-3.2667 19.073-4.8589 27.365-4.2084 4.0921 0.32103 10.77 1.3645 12.875 2.0118l1.2074 0.37126-0.79387 0.30365c-0.43663 0.16701-1.2901 0.45356-1.8965 0.63679-3.334 1.0073-10.568 4.4329-14.472 6.8532-16.053 9.9513-29.398 25.426-39.482 45.782-8.5288 17.217-13.932 36.466-16.171 57.614-0.28094 2.6533-0.45764 4.9172-0.39265 5.0309 0.06499 0.11371 6.9643 0.20675 15.332 0.20675h15.214l-24.395 24.396c-13.417 13.418-24.458 24.396-24.534 24.396-0.07645 0-11.117-10.978-24.534-24.396z" fill="#333"/>
 </g>
 <g fill-opacity=".65293">
  <path d="m58.511 168.46-24.405-24.413 30.24-0.37174 0.50676-5.1606c0.27872-2.8383 1.2733-9.3406 2.2102-14.45 7.8996-43.077 30.567-77.768 60.036-91.88 8.4877-4.0646 15.991-5.9233 25.588-6.3388 8.6308-0.37366 20.031 0.74157 20.031 1.9596 0 0.33924-0.39519 0.6168-0.8782 0.6168-2.0779 0-16.466 7.859-21.847 11.934-20.78 15.733-36.927 42.937-44.582 75.108-2.22 9.3303-4.2521 21.786-4.2521 26.063v2.492h14.794c8.1365 0 14.794 0.23388 14.794 0.51974s-10.761 11.278-23.914 24.427l-23.914 23.907z" fill="#5d564e"/>
  <path d="m57.809 168.44-24.419-24.427h15.306c11.779 0 15.309-0.19819 15.319-0.86009 0.0074-0.47305 0.47633-3.9564 1.0422-7.7408 0.56583-3.7844 1.1612-7.9691 1.323-9.2994 0.16182-1.3302 0.63147-3.8073 1.0437-5.5046 0.4122-1.6973 0.90351-3.86 1.0918-4.8062s0.51584-2.1846 0.7279-2.7523c0.21207-0.56766 0.5217-1.8062 0.68807-2.7523s0.49488-2.1846 0.73001-2.7523c0.23513-0.56766 0.5325-1.565 0.66082-2.2163 0.12832-0.65129 1.1259-3.7604 2.217-6.9091 5.1529-14.871 12.042-27.73 21.099-39.384 4.9191-6.329 15.214-16.466 19.656-19.355 1.668-1.0849 3.4007-2.3189 3.8505-2.7423 0.44971-0.42335 3.546-2.1652 6.8807-3.8709 8.9537-4.5797 16.82-6.9072 22.842-6.7587 1.2812 0.0316 2.6745-0.22046 3.0963-0.56016 1.1156-0.89847 16.674 0.0051 20.721 1.2034l2.0642 0.61118-4.1284 1.8479c-7.6331 3.4165-9.8642 4.5751-14.231 7.39-26.898 17.339-46.687 52.768-52.824 94.573-0.77054 5.2486-1.4027 10.233-1.4047 11.078l-3e-3 1.5347 29.931 0.37088-24.06 24.255c-13.233 13.34-24.227 24.255-24.431 24.255-0.20347 0-11.359-10.992-24.789-24.427z"/>
  <path d="m57.623 168.12-24.241-24.06 30.557-0.046 0.36388-2.2362c0.20013-1.2299 0.85883-5.797 1.4638-10.149 4.7005-33.816 17.681-61.837 38.264-82.601 7.7595-7.8277 13.651-12.089 22.929-16.586 10.844-5.2552 15.653-6.2643 29.931-6.2811 6.6227-0.0078 12.97 0.30058 14.106 0.68527 2.0326 0.68875 1.9606 0.74805-4.709 3.8777-20.873 9.7946-36.428 26.105-48.654 51.019-5.1492 10.493-9.1701 21.555-11.954 32.89-1.8713 7.6184-4.5025 23.387-4.515 27.057l-7e-3 2.1486 29.086 1.0128-23.656 23.664c-13.011 13.015-23.896 23.664-24.19 23.664s-11.442-10.827-24.774-24.06z"/>
 </g>
</svg>
